<svg id="图层_1" data-name="图层 1" xmlns="http://www.w3.org/2000/svg" viewBox="0 0 1870 596"><rect x="1" y="252" width="282" height="104" rx="11" fill="#dfe5f1"/><path d="M282,260a10,10,0,0,1,10,10v82a10,10,0,0,1-10,10H22a10,10,0,0,1-10-10V270a10,10,0,0,1,10-10H282m0-2H22a12,12,0,0,0-12,12v82a12,12,0,0,0,12,12H282a12,12,0,0,0,12-12V270a12,12,0,0,0-12-12Z" transform="translate(-10 -7)" fill="#91b0d2"/><rect x="4" y="491" width="279" height="104" rx="11" fill="#cbe0ed"/><path d="M282,499a10,10,0,0,1,10,10v82a10,10,0,0,1-10,10H25a10,10,0,0,1-10-10V509a10,10,0,0,1,10-10H282m0-2H25a12,12,0,0,0-12,12v82a12,12,0,0,0,12,12H282a12,12,0,0,0,12-12V509a12,12,0,0,0-12-12Z" transform="translate(-10 -7)" fill="#91b0d2"/><rect x="338" y="491" width="330" height="104" rx="11" fill="#dfefed"/><path d="M667,499a10,10,0,0,1,10,10v82a10,10,0,0,1-10,10H359a10,10,0,0,1-10-10V509a10,10,0,0,1,10-10H667m0-2H359a12,12,0,0,0-12,12v82a12,12,0,0,0,12,12H667a12,12,0,0,0,12-12V509a12,12,0,0,0-12-12Z" transform="translate(-10 -7)" fill="#618c4a"/><rect x="1050" y="1" width="352" height="283" rx="11" fill="#f7f6f6"/><path d="M1401,9a10,10,0,0,1,10,10V280a10,10,0,0,1-10,10H1071a10,10,0,0,1-10-10V19a10,10,0,0,1,10-10h330m0-2H1071a12,12,0,0,0-12,12V280a12,12,0,0,0,12,12h330a12,12,0,0,0,12-12V19a12,12,0,0,0-12-12Z" transform="translate(-10 -7)" fill="#b3b0a7"/><rect x="338" y="252" width="668" height="104" rx="11" fill="#caece4"/><path d="M1005,260a10,10,0,0,1,10,10v82a10,10,0,0,1-10,10H359a10,10,0,0,1-10-10V270a10,10,0,0,1,10-10h646m0-2H359a12,12,0,0,0-12,12v82a12,12,0,0,0,12,12h646a12,12,0,0,0,12-12V270a12,12,0,0,0-12-12Z" transform="translate(-10 -7)" fill="#618c4a"/><text transform="translate(83.02 555.44)" font-size="36" font-family="TimesNewRomanPSMT, Times New Roman">DataHub</text><text transform="translate(351.02 555.44)" font-size="36" font-family="TimesNewRomanPSMT, Times New Roman">Interaction Function</text><rect x="670" y="491" width="336" height="104" rx="11" fill="#dfefed"/><path d="M1005,499a10,10,0,0,1,10,10v82a10,10,0,0,1-10,10H691a10,10,0,0,1-10-10V509a10,10,0,0,1,10-10h314m0-2H691a12,12,0,0,0-12,12v82a12,12,0,0,0,12,12h314a12,12,0,0,0,12-12V509a12,12,0,0,0-12-12Z" transform="translate(-10 -7)" fill="#618c4a"/><text transform="translate(717.43 555.44)" font-size="36" font-family="TimesNewRomanPSMT, Times New Roman">Feature Extractor</text><rect x="1056" y="491" width="346" height="104" rx="11" fill="#f8f1d7"/><path d="M1401,499a10,10,0,0,1,10,10v82a10,10,0,0,1-10,10H1077a10,10,0,0,1-10-10V509a10,10,0,0,1,10-10h324m0-2H1077a12,12,0,0,0-12,12v82a12,12,0,0,0,12,12h324a12,12,0,0,0,12-12V509a12,12,0,0,0-12-12Z" transform="translate(-10 -7)" fill="#d4b900"/><text transform="translate(1187.86 555.44) scale(1.03 1)" font-size="36" font-family="TimesNewRomanPSMT, Times New Roman">Ruler</text><rect x="1612" y="336" width="257" height="104" rx="11" fill="#ffd9c6"/><path d="M1868,344a10,10,0,0,1,10,10v82a10,10,0,0,1-10,10H1633a10,10,0,0,1-10-10V354a10,10,0,0,1,10-10h235m0-2H1633a12,12,0,0,0-12,12v82a12,12,0,0,0,12,12h235a12,12,0,0,0,12-12V354a12,12,0,0,0-12-12Z" transform="translate(-10 -7)" fill="#b03831"/><text transform="translate(1683.86 400.44) scale(1.03 1)" font-size="36" font-family="TimesNewRomanPSMT, Times New Roman">Listener</text><text transform="translate(17.22 310.9)" font-size="36" font-family="TimesNewRomanPSMT, Times New Roman">Build-in datasets</text><text transform="translate(403.79 310.9)" font-size="36" font-family="TimesNewRomanPSMT, Times New Roman">Flexible Cognitive Diagnosis Models</text><line x1="142" y1="490" x2="142" y2="383.58" fill="none" stroke="#000" stroke-miterlimit="10" stroke-width="3"/><polygon points="150.72 389.52 142 357 133.28 389.52 150.72 389.52"/><text transform="translate(156.41 413.69)" font-size="36" font-family="TimesNewRomanPSMT, Times New Roman">Abstract <tspan x="0" y="43.2">Base Class</tspan></text><line x1="668.5" y1="490" x2="668.5" y2="383.58" fill="none" stroke="#000" stroke-miterlimit="10" stroke-width="3"/><polygon points="677.22 389.52 668.5 357 659.78 389.52 677.22 389.52"/><text transform="translate(693.91 436.69)" font-size="36" font-family="TimesNewRomanPSMT, Times New Roman">Building Strategy</text><polyline points="143.5 251 143.5 141.79 1022.42 141.79" fill="none" stroke="#000" stroke-miterlimit="10" stroke-width="3"/><polygon points="1016.48 150.5 1049 141.79 1016.48 133.07 1016.48 150.5"/><line x1="669" y1="251" x2="669" y2="141.79" fill="none" stroke="#000" stroke-miterlimit="10" stroke-width="3"/><text transform="translate(259.26 120.64)" font-size="36" font-family="TimesNewRomanPSMT, Times New Roman">Unified Interface, Input and Output</text><polygon points="1212.1 111.48 1142.26 162.23 1168.94 244.34 1255.27 244.34 1281.95 162.23 1212.1 111.48" fill="none" stroke="#a2d6b2" stroke-miterlimit="10"/><polygon points="1212.1 136.62 1168.69 168.16 1185.27 219.2 1238.93 219.2 1255.52 168.16 1212.1 136.62" fill="none" stroke="#d9eedf" stroke-miterlimit="10"/><polygon points="1212.1 157.39 1190.53 173.06 1198.77 198.43 1225.44 198.43 1233.68 173.06 1212.1 157.39" fill="none" stroke="#d9eedf" stroke-miterlimit="10"/><polygon points="1212.24 136.44 1153.55 164.75 1182.89 223.44 1237.4 218.2 1237.4 172.08 1212.24 136.44" fill="#eddf9b" stroke="gray" stroke-miterlimit="10" opacity="0.2"/><polygon points="1212.24 120.72 1159.84 166.84 1170.41 230.97 1231.11 209.82 1218.53 175.23 1212.24 120.72" fill="#00bac4" stroke="gray" stroke-miterlimit="10" opacity="0.2"/><text transform="translate(1180.02 76.27)" font-size="23.89" font-family="TimesNewRomanPS-ItalicMT, Times New Roman" font-style="italic">Linear<tspan x="-20.78" y="28.66">P</tspan><tspan x="-6.19" y="28.66" letter-spacing="-0.04em">r</tspan><tspan x="2.22" y="28.66">ocessing</tspan></text><text transform="translate(1280.21 155.89)" font-size="23.89" font-family="TimesNewRomanPS-ItalicMT, Times New Roman" font-style="italic">Calculation</text><text transform="translate(1265.63 262.05)" font-size="23.89" font-family="TimesNewRomanPS-ItalicMT, Times New Roman" font-style="italic">Inequality</text><text transform="translate(1066.59 262.05)" font-size="23.89" font-family="TimesNewRomanPS-ItalicMT, Times New Roman" font-style="italic">Geometry</text><text transform="translate(1059.92 151.91)" font-size="23.89" font-family="TimesNewRomanPS-ItalicMT, Times New Roman" font-style="italic"><tspan letter-spacing="-0.06em">T</tspan><tspan x="11.97" y="0">riangle</tspan></text><text transform="translate(1067.83 41.04)" font-size="36" font-family="TimesNewRomanPSMT, Times New Roman">Diagnostic Outcomes</text><line x1="1226" y1="490" x2="1226" y2="285.88" fill="none" stroke="#000" stroke-miterlimit="10" stroke-width="3"/><line x1="1227.5" y1="387.5" x2="1233.5" y2="387.5" fill="none" stroke="#000" stroke-miterlimit="10" stroke-width="3"/><line x1="1245.32" y1="387.5" x2="1570.51" y2="387.5" fill="none" stroke="#000" stroke-miterlimit="10" stroke-width="3" stroke-dasharray="11.82 11.82"/><line x1="1576.42" y1="387.5" x2="1582.42" y2="387.5" fill="none" stroke="#000" stroke-miterlimit="10" stroke-width="3"/><polygon points="1576.48 396.22 1609 387.5 1576.48 378.78 1576.48 396.22"/><text transform="translate(1286.81 375.57)" font-size="36" font-family="TimesNewRomanPSMT, Times New Roman">Unified Interface<tspan x="-38.03" y="43.2">Flexible Measurement</tspan></text><line x1="1403" y1="142.5" x2="1409" y2="142.5" fill="none" stroke="#000" stroke-miterlimit="10" stroke-width="3"/><line x1="1421.06" y1="142.5" x2="1728.47" y2="142.5" fill="none" stroke="#000" stroke-miterlimit="10" stroke-width="3" stroke-dasharray="12.06 12.06"/><polyline points="1734.5 142.5 1740.5 142.5 1740.5 148.5" fill="none" stroke="#000" stroke-miterlimit="10" stroke-width="3"/><line x1="1740.5" y1="160.34" x2="1740.5" y2="296.5" fill="none" stroke="#000" stroke-miterlimit="10" stroke-width="3" stroke-dasharray="11.84 11.84"/><line x1="1740.5" y1="302.42" x2="1740.5" y2="308.42" fill="none" stroke="#000" stroke-miterlimit="10" stroke-width="3"/><polygon points="1731.78 302.48 1740.5 335 1749.22 302.48 1731.78 302.48"/><text transform="translate(1408.12 127.98)" font-size="36" font-family="TimesNewRomanPSMT, Times New Roman">Observe when<tspan x="206.93" y="0" letter-spacing="-0.02em"> </tspan><tspan x="215.28" y="0" letter-spacing="-0.04em">T</tspan><tspan x="236" y="0">raining</tspan></text></svg>